<?xml version="1.0" encoding="UTF-8"?>
<!DOCTYPE svg PUBLIC "-//W3C//DTD SVG 1.1//EN" "http://www.w3.org/Graphics/SVG/1.1/DTD/svg11.dtd">
<!-- Creator: CorelDRAW 2020 -->
<svg xmlns="http://www.w3.org/2000/svg" xml:space="preserve" width="85.4196mm" height="85.4365mm" version="1.1" style="shape-rendering:geometricPrecision; text-rendering:geometricPrecision; image-rendering:optimizeQuality; fill-rule:evenodd; clip-rule:evenodd"
viewBox="0 0 11588.82 11591.12"
 xmlns:xlink="http://www.w3.org/1999/xlink"
 xmlns:xodm="http://www.corel.com/coreldraw/odm/2003">
 <defs>
  <style type="text/css">
   <![CDATA[
    .fil0 {fill:white}
   ]]>
  </style>
 </defs>
 <g id="Camada_x0020_1">
  <metadata id="CorelCorpID_0Corel-Layer"/>
  <path class="fil0" d="M35.53 7399.04l3.8 -16.61c4.87,46.9 17.12,48.26 22.98,100.94 4.48,40.19 21.25,63.9 26.35,104.75 9.29,74.59 58.92,173.59 82.45,244.94 11.52,34.85 11.27,18.15 22.02,42.4 13.31,30 20.47,61.68 38.3,93.37l168 288.6c11.53,15.93 14.75,19.86 26.63,38.46 97.55,152.66 232.61,295.64 373.52,410.14l143.66 116.96c101.22,71.84 209.87,144.28 320.55,200.83l135.9 61.12c25.34,8.57 26.84,13.39 44.61,20.36 23.36,9.17 29.13,3.66 50.39,15.22 48.8,26.52 94.06,37.16 146.01,50.1l96.31 32.87c39.36,19.7 267.85,55.14 325.32,63.03 47.88,6.58 241.29,-10.18 251.22,25.87l3.24 11.88c7.84,46.33 0.52,1505.51 0.52,1663.78 -0.01,151.8 7.04,173.72 59.59,302.87 7.65,18.82 36.5,63.03 46.68,77.81 25.59,37.15 74.96,95.58 116.74,124.88 10.05,7.05 24.77,19.12 34.01,24.72 65.99,40.02 139.35,77.71 215.33,86.69 102.93,12.17 237.99,8.18 326.23,-31.54 17.07,-7.68 13.54,-9.58 38.01,-19.85l111.37 -71.84c24.35,-18.29 42.53,-36.44 61.93,-55.72l306.88 -306.72c20.96,-18.57 39.83,-40.47 57.81,-59.12l973.83 -978.12c0.94,-1.09 2.17,-2.58 3.09,-3.65l28.16 -28.68c1.06,-0.91 2.58,-2.12 3.64,-3.04l593.81 -601.19c0.92,-1.09 2.09,-2.66 2.98,-3.74l149.52 -145.7c158.19,-13.63 370.95,-1.93 535.03,-1.93l3223.23 0c84.83,0.01 182.56,5.01 258.57,-9.73 70.58,-13.69 151.62,-9.86 211.31,-24.19l300.24 -73.07c43.47,-5.28 21.41,-1.57 49.18,-16.14 48.18,-25.28 176.15,-58.65 238.93,-94.2 25.47,-14.41 11.45,-14.58 44.66,-25.98 40.93,-14.04 137.23,-72.31 170.97,-96.54 19.77,-14.2 27.89,-11.84 48.79,-24.31l15.74 -10.54c111.06,-71.44 213.29,-156.75 308.04,-245.52 116.61,-109.27 223.41,-231.52 317.41,-361.21 43.62,-60.18 169.53,-263.37 196.9,-339.36l31.81 -64.04c32.9,-74.14 62.27,-139.66 84.36,-221.1 7.08,-26.1 11.84,-23.53 18.19,-47.17 14.26,-53.07 20.35,-119.36 35.9,-168.77 17.43,-55.49 15.89,-54.05 22.89,-114.46 5.28,-45.63 10.65,-69.11 18.55,-112.27 7.11,-38.76 7.71,-78.62 9.1,-126.69 2.65,-91.12 2.04,-182.86 2.04,-274.04 0,-1433.27 0,-2866.53 0,-4299.81 0,-222.81 2.62,-426.54 -33.35,-635.11l-53.6 -219.7c-7.23,-45.52 -36.4,-106.55 -49.19,-155.48 -7.33,-27.99 -8.79,-18.71 -20.23,-42.45l-70.06 -165c-7.1,-14.87 -4.56,-5.32 -12.32,-20.47l-45.07 -92.27c-37.66,-65.16 -100.82,-147.78 -130.39,-200.72 -42.99,-76.99 -165.76,-228.09 -224.18,-273.62l-28.1 -29.1c-3.88,-4.92 -5.39,-6.32 -9.29,-10.68 -47.82,-53.2 -99.78,-98.18 -154.46,-145.9l-252.13 -183.98c-1.26,-0.79 -2.85,-1.86 -4.11,-2.66l-475.96 -223.14 -162.94 -46.21c-46.53,-21.65 -74.25,-8.95 -114.07,-23.93 -24.37,-9.17 -15.22,-11.97 -48.03,-16.39 -58.28,-7.86 -116.51,-22.02 -176.14,-26.21 -263.02,-18.51 -532.35,-7.56 -796.27,-7.56 -1794.3,0 -3588.6,0 -5382.91,0 -259.05,0 -1112.61,-16.97 -1330.25,15.25 -35.18,5.21 -70.66,13.21 -112.46,17.47 -51.04,5.21 -68.11,17.35 -113.08,24.62 -69.71,11.29 -239.52,64.63 -310.68,94.77 -61.42,26.01 -130,48.01 -185.55,81.42l-413.53 259.26c-49.53,38.53 -169.89,139.37 -208.84,189.33 -26.17,33.55 -38.03,38.53 -66.84,69.44l-286.33 385.42 -71.19 131.91c-66.88,115.5 -111.15,251.29 -155.18,377.96 -6.61,18.99 -4.95,35.15 -10.7,54.85 -6.53,22.29 -12.2,24.95 -16.29,49.51 -3.93,23.5 -3.96,40.38 -9.4,62.99l-22.78 114.48c-4.82,40.14 -14,75.96 -20.42,116.21 -20.88,131.12 -9.16,877.81 -9.16,1069.44l0 3764.77c-0.01,89.58 1.13,178.08 3.5,267.63 2.54,95.8 24.43,155.84 28.75,247.83zm5235.63 -2070.04c44.91,3.24 12.69,2.09 65.04,33.88 48.16,29.22 41.65,29.37 92.04,50.82 36.06,15.36 -0.35,7.62 63.34,26.79 22.81,6.86 24.75,11.5 37.02,16.25 29.86,11.59 55.38,3.72 80.74,12.85 31.01,11.19 26.66,17.94 74.08,21.67 182.03,14.26 208.93,-1.18 356.38,-27.68l137.83 -55.73c25.32,-12.48 4.04,-5.16 25.74,-18.21 13.23,-7.96 15.62,-5.98 30.46,-15.75l60.14 -38.11c115.88,-89.95 61.02,-40.06 150.25,-136.62l78.5 -112.52c2.17,-5.18 3.08,-10.28 5.03,-14.15 16.97,-33.51 -11.82,12.43 10.57,-13.55 0.85,-0.99 2.44,-2.14 3.3,-3.19l33.13 -59.74c7.34,-18.67 1.33,-18.02 10.8,-35 13.17,-23.62 7.61,1.71 17.3,-28.33 4.53,-14.07 3.81,-28.33 8.95,-43.18 6.57,-18.99 10.13,-15.91 15.09,-30.21 10.5,-30.4 -1.13,-67.12 19.55,-131.34 34.49,-107.14 -4.42,-188.08 -11.87,-257.2 -1.02,-9.37 -2.1,-30.17 -4.34,-40.67 -9.08,-42.25 -8.07,3.04 -24.53,-73.38l-84.9 -177.94c-14.26,-22.11 3.07,4.78 -11.72,-14.2 -14.92,-19.17 -11.76,-16.76 -14.15,-45.53 -75.01,-74.69 -44.16,-71.63 -173.18,-172.02 -51.78,-40.28 -124.23,-92.04 -188.36,-110.96l-134.46 -47.84c-27.53,-6.8 -84.71,-10.85 -110.39,-14.52 -119.82,-17.09 -119.16,-6.32 -219.77,5.2 -93.34,10.69 -115.29,21.02 -192.07,49.23 -61.93,22.77 -58.41,23.63 -113.76,61.04 -30.73,20.77 -42.13,15.13 -111.97,71.15l-121.97 119.69c-14.49,18.52 -5.29,15.57 -25.57,39.21 -0.87,1.02 -2.27,2.35 -3.13,3.36 -0.88,1.03 -2.21,2.43 -3.08,3.49 -47.06,57.37 -73.17,115.51 -103.91,176.63 -13.38,26.62 -5.25,20.13 -12.44,47.65 -10.93,41.75 -15.85,-8.9 -30.09,85.11 -3.24,21.4 -11.4,36.6 -14.95,50.14 -13.02,49.51 -12.14,171.97 -8.95,231.74l42.33 198.4c12.96,29.58 2.73,33.24 22.34,61.44 13.88,19.97 1.87,-4.68 12.69,20.38 32.19,74.6 88.94,158.54 145.08,219.81 14.12,15.4 107.23,109.3 121.87,111.67zm2373.48 -285.42c1.48,34.32 37.46,78.2 58.79,105.61 47.08,60.48 104.63,126.19 165.72,173.36 11.63,8.97 22.72,14.33 35.68,23.2 52.42,35.95 170.02,110.42 230.34,115.93 120.3,3.66 88.86,27.53 182.43,30.85 36.35,1.29 180.52,5.06 207.36,-3.11 31.87,-9.73 7.76,-22.37 73.03,-23.69 14.96,-0.3 38.56,0.09 52.46,-3.68 27.38,-7.42 11.61,-10.13 32.14,-19.16 13.7,-6.01 28.82,-4.02 43.73,-9.31 22.11,-7.86 9.96,-8.91 33.27,-18.55 73.33,-30.29 126.51,-60.54 193.57,-114.64 12.35,-9.97 4.06,-3.23 13.55,-12.62 10.13,-10 3.53,-4.21 13.06,-12.64 6.81,-6.02 5.74,-4.44 14.12,-12.02l50.56 -53.68c40.4,-42.08 115.5,-149.58 137.27,-202.39 20.38,-49.38 -11.18,-36.41 31.23,-64.24 7.62,-116.91 14.11,-41.15 26.66,-94.62 8.07,-34.35 1.06,-66.37 11.94,-105.71 10.92,-39.48 15.51,-53.52 15.59,-103.38 0.19,-93.61 -8.53,-70.49 -16.54,-95.51 -8.33,-26.03 -5.54,-77.37 -9.59,-107.34 -5.37,-39.62 -6.4,-16.85 -18.36,-41.84 -7.03,-14.69 -5.7,-29.2 -9.36,-48.75 -7.04,-37.55 -67.79,-136.56 -68.87,-160.82 -12.96,-5.83 -11.44,-3.04 -28.92,-30.92 -19.56,-31.22 -69.45,-94.56 -96.09,-113.46 -33.7,-23.89 -24.79,-36.66 -80.8,-74.89 -1.22,-0.84 -2.85,-1.87 -4.07,-2.69l-56.67 -40.67c-16.33,-10.89 -12.51,-11.27 -29.7,-21.27 -18.08,-10.53 -19.81,-11.82 -32.7,-19.93l-146.41 -62.08c-26.69,-4.49 -27.64,-0.41 -49.48,-10.64 -78.12,-36.56 -245.82,-27.35 -327.85,-20.95 -27.26,2.13 -66.94,4.5 -89.65,12.9 -15.45,5.71 -19.75,10.7 -36.13,14.84l-185.51 76.3c-54.66,30.5 -94.53,58.74 -140.16,100.71 -53.11,48.85 -124.98,120.07 -157.88,181.61l-55.46 100.65c-7.01,14.99 -5.96,26.29 -12.24,40.95 -11.94,27.84 -7.1,-3.55 -17.89,34.98 -4.03,14.39 -3.22,27.01 -9.82,41.68 -9.2,20.38 -9.04,2.96 -16.17,36.47 -6.57,30.89 -2.16,61.35 -12.2,91.54 -14.22,42.82 -26.55,142.48 -6.24,192.41 22.9,56.33 6.19,125.24 32.68,177.12 10.89,21.29 7.07,13.77 12.31,37.47l31.01 75.19c11.76,20.61 14.99,8.3 16.25,41.45zm-5219.44 0c1.98,33.4 51.2,94.63 73.41,123.12l75.92 87.49c80.95,77.54 112.86,94.97 206.07,152.37l143.28 59.52c119.63,27.62 124.37,36.51 278.56,35.25 68.38,-0.56 141.67,3.13 193.18,-17.58 15.15,-6.11 27.55,-7.81 43.02,-10.41 61.72,-10.28 6.58,-13.28 73,-29.71 60.55,-14.98 127.98,-66.51 178.87,-101.13 8,-5.45 8.34,-4.38 16.74,-9.43 44.02,-26.5 99.03,-87.57 133.21,-127.94 36.03,-42.57 83.63,-98.13 110.2,-149.81l33.54 -71.06c14.08,-30.96 34.66,-80.18 40.44,-117.35 17.32,-111.38 49.98,-252.33 16.57,-381.73 -7.99,-30.93 -10.47,-53.79 -18.14,-85.91 -7.18,-30.08 -20.11,-36.89 -24.65,-74.54 -25.48,-11.38 -17.94,-2.73 -28.49,-35.5 -5.25,-16.33 -2.29,-10.98 -9.52,-23.04l-29.55 -54.81c-8.02,-13.38 -9.96,-16.85 -18.95,-33.44 -22.89,-42.23 -72.19,-101.33 -108.71,-133.47l-76.59 -73.11c-1.53,-1.19 -5.78,-4.75 -7.33,-5.94l-23.38 -16.36c-7.64,-5.07 -13.01,-9.04 -20.53,-12.97 -32.02,-16.73 -106.8,-79.56 -159.6,-89.51 -29.17,-5.51 -23.25,-1.49 -42.27,-14.23 -28.67,-19.2 -46.87,-13.25 -80.9,-29.21 -23.19,-10.87 -162.75,-23.76 -196.53,-24.15 -147.57,-1.75 -177.14,9.54 -290.1,43.4 -25.7,7.69 -18.94,11.06 -38.3,18.74l-116.54 54.58c-115.81,64.09 -276.37,223.94 -322.01,343.32 -9.86,25.85 -9.71,11.23 -20.8,37.51l-46.29 115.41 -35.55 188.02c-9.31,146.88 10.7,138.75 19.02,203.57 6.65,51.84 -3.27,54.51 19.36,92.23 12.32,20.55 8.13,19.79 12.62,44.5 4.6,25.3 42.46,90.83 47.71,123.31z"/>
 </g>
</svg>
