<?xml version="1.0" encoding="UTF-8"?>
<!DOCTYPE svg PUBLIC "-//W3C//DTD SVG 1.1//EN" "http://www.w3.org/Graphics/SVG/1.1/DTD/svg11.dtd">
<!-- Creator: CorelDRAW 2020 -->
<svg xmlns="http://www.w3.org/2000/svg" xml:space="preserve" width="63.4747mm" height="79.4082mm" version="1.1" style="shape-rendering:geometricPrecision; text-rendering:geometricPrecision; image-rendering:optimizeQuality; fill-rule:evenodd; clip-rule:evenodd"
viewBox="0 0 6346.04 7939.03"
 xmlns:xlink="http://www.w3.org/1999/xlink"
 xmlns:xodm="http://www.corel.com/coreldraw/odm/2003">
 <defs>
  <style type="text/css">
   <![CDATA[
    .fil0 {fill:white}
   ]]>
  </style>
 </defs>
 <g id="Camada_x0020_1">
  <metadata id="CorelCorpID_0Corel-Layer"/>
  <g id="_933646072">
   <rect class="fil0" x="1595.48" y="4165.87" width="1565.06" height="388.91" rx="274.4" ry="194.46"/>
   <rect class="fil0" x="1595.48" y="4955.04" width="3162.59" height="388.91" rx="554.5" ry="194.46"/>
   <rect class="fil0" x="1595.48" y="5744.22" width="3162.59" height="388.91" rx="554.5" ry="194.46"/>
   <path class="fil0" d="M991.24 0l2429.83 0 549.9 0 2375.07 2375.07 0 549.9 0 4022.82c0,545.19 -446.05,991.24 -991.24,991.24l-4363.57 0c-545.19,0 -991.24,-446.05 -991.24,-991.24l0 -5956.56c0,-545.19 446.05,-991.24 991.24,-991.24zm4965.94 2572.01l-1191.9 0c-545.19,0 -991.24,-446.05 -991.24,-991.24l0 -1191.91 -2782.81 0c-331.33,0 -602.37,271.06 -602.37,602.37l0 5956.56c0,331.32 271.05,602.37 602.37,602.37l4363.58 0c331.33,0 602.37,-271.06 602.37,-602.37l0 -4375.78zm-352.96 -388.86l-838.95 0c-331.33,0 -602.37,-271.06 -602.37,-602.37l0 -838.95 1441.33 1441.33z"/>
  </g>
 </g>
</svg>
