<?xml version="1.0" encoding="UTF-8"?>
<!DOCTYPE svg PUBLIC "-//W3C//DTD SVG 1.1//EN" "http://www.w3.org/Graphics/SVG/1.1/DTD/svg11.dtd">
<!-- Creator: CorelDRAW 2020 -->
<svg xmlns="http://www.w3.org/2000/svg" xml:space="preserve" width="164.132mm" height="164.132mm" version="1.1" style="shape-rendering:geometricPrecision; text-rendering:geometricPrecision; image-rendering:optimizeQuality; fill-rule:evenodd; clip-rule:evenodd"
viewBox="0 0 4442.24 4442.25"
 xmlns:xlink="http://www.w3.org/1999/xlink"
 xmlns:xodm="http://www.corel.com/coreldraw/odm/2003">
 <defs>
  <style type="text/css">
   <![CDATA[
    .fil0 {fill:white}
   ]]>
  </style>
 </defs>
 <g id="Camada_x0020_1">
  <metadata id="CorelCorpID_0Corel-Layer"/>
  <path class="fil0" d="M704.94 991.26l17.58 -17.12c4.32,-4.1 4.06,-4.75 8.5,-8.85l28.2 -28.2c4.09,-4.44 4.75,-4.19 8.85,-8.5l64.02 -63.95c3.21,-3.21 1.86,-2.31 4.06,-4.62 4.02,-4.22 0.94,-0.89 4.51,-4.17l119.3 -119.3c13.25,-12.2 22.87,-25.95 37.8,-35.95 21.63,11.45 96.84,68.33 118.05,83.67 20.52,14.84 39.47,27.67 59.49,42.46 38.54,28.48 79.54,55.07 117.77,83.96l88.63 63.21c10.44,6.87 20.25,14.53 30.38,21.67 9.93,7 18.73,13.29 29.1,20.79 39.97,28.91 24.04,24.63 84.05,-7.39 72.57,-38.72 143.96,-74.32 221.71,-101.48 50.91,-17.79 103.36,-32.83 155.65,-48.24 18.5,-5.45 14.27,-1.56 17.17,-24.04 8.89,-68.81 24.1,-140.08 33.92,-209.02 3.52,-24.76 8.03,-46.3 11.37,-71.06 4.84,-35.95 12.85,-68.14 17.63,-103.84l22.8 -139.88c1.46,-9.57 -0.34,-31.62 9.59,-31.62l409.95 0c0,13.38 50.63,291.98 55.75,323.84 2.25,14.02 5.27,22.92 7.05,36.33 6.69,50.22 16.74,95.31 24.89,144.3 3.92,23.54 11.56,48.75 12.09,72.51 20.31,4.73 39.4,13.06 59.81,18.27 54.77,14 108.3,33.9 160.17,54.57l172.2 83.75c12.09,7.35 40,24.87 52.48,27.78 40.25,-26.95 78.95,-57.84 118.87,-85.02l59.01 -42.94c20.1,-14.11 39.04,-27.7 59.47,-42.48l177.86 -127.98c10.5,-7.55 18.68,-13.82 29.02,-20.87 10.33,-7.04 20.13,-15.61 30.8,-21.26l293.37 292.28 -42.62 60.4c-7.12,10.32 -14.5,19.53 -20.69,29.2l-231.79 330c-57.22,86.45 -51.63,38.78 0.32,141.98 5.23,10.4 9.7,17.18 14.45,26.76l44.61 96.38c2.98,6.95 3.94,7.89 6.85,14.84l60.7 182.24c6.48,19.87 9.83,19.55 46.81,35.62 24.68,10.72 29.29,16.3 59.74,20.52 80.56,11.15 163.93,28.05 243.9,40.25 13.31,2.03 23.31,3.12 35.97,5.24 23.34,3.92 45.29,7.56 70.97,11.46 13.32,2.02 19.85,4.19 33.06,5.98 10.86,1.48 23.81,2.98 36.04,5.18 12.71,2.29 21.4,4.5 34.68,6.54 9.57,1.46 31.62,-0.34 31.62,9.59l0 409.95c-18.04,0 -371.53,65.7 -415.19,72.85l-138.88 23.81c-6.79,1.08 -11.69,1.74 -16.91,2.61 -18.56,3.1 -13.07,18.19 -20.59,40.15l-18.83 63.59c-9.19,31.18 -21.48,60.01 -31.38,90.08 -11.6,35.25 -31.74,80.27 -48.7,113.98l-28.18 54.25c-45.69,91.72 -54.53,67.82 -22.82,110.99 7.64,10.4 14.02,20 21.68,30.38 7.35,9.95 13.15,19.1 20.73,29.16l64.78 89.22c14.78,20.43 27.54,39.78 42.44,59.51 11.74,15.56 158.88,215.91 171.05,238.9l-292.28 293.37c-18.27,-16.11 -40.58,-28.27 -60.36,-42.67 -10.21,-7.43 -19.42,-13.91 -29.13,-20.76 -39.91,-28.16 -80.87,-54.77 -119.9,-84l-210.22 -147.67c-20.98,-13.93 -39.7,-27.84 -60.3,-41.64 -13.35,3.11 -37.81,18.99 -51.14,26.94 -50.82,30.34 -144.93,74.9 -198.6,94.23l-42.45 16.12c-10.23,4.07 -19.41,5.55 -29.48,9.56l-59.65 18.44c-17.02,4.59 -45.29,11.47 -61.17,19.09l-13.03 71.57c-4.04,24.5 -8.71,48.17 -12.7,71.9l-51.11 287.27c-2.38,12.74 -3.84,22.91 -5.89,35.32 -3.28,19.83 -19.22,96.75 -19.22,110.93l-409.95 0c-8.75,0 -7.16,-14.8 -8.68,-23.86l-61.32 -365.99c-3.47,-18.1 -5.37,-38.45 -9.36,-57.88 -8.05,-39.21 -12.4,-74.88 -18.46,-113.85 -3.05,-19.64 -9.56,-17.38 -40.15,-24.92 -39.42,-9.71 -88.18,-25.02 -125.41,-39.44 -9.35,-3.62 -16.6,-5.35 -25.75,-8.96 -16.5,-6.51 -30.81,-11.76 -46.8,-18.27l-68.46 -31.31c-33.24,-13.75 -76.57,-39.09 -108.2,-56.65 -23.07,-12.8 -26.94,-23.21 -42.39,-11.3 -43.44,33.5 -91.11,62.12 -135.42,94.57l-331.23 232.72c-22.99,-15.39 -46.8,-45.66 -68.34,-66.14l-23.9 -23.82c-33.1,-35.51 -189.23,-185.91 -200.59,-202.86l124.94 -176.56c68.91,-99.82 143.82,-195.56 211.27,-296.29 -2.57,-9.61 -50.89,-94.57 -54.7,-101.47 -8.74,-15.8 -19.01,-35.13 -26.18,-51.91 -8.23,-19.28 -17.65,-35.76 -24.58,-55.67 -3.78,-10.86 -7.62,-17.16 -11.39,-27.65 -2.22,-6.15 -3.45,-7.63 -5.88,-13.64 -2.18,-5.38 -3.48,-10.11 -4.94,-14.58l-47.17 -148.04c-13.6,-40.4 0.04,-30.81 -44.24,-38.18l-250.36 -44.64c-13.6,-2.23 -21.03,-4.25 -34.7,-6.52 -13.33,-2.21 -24.48,-3.27 -37.2,-6.18l-143.11 -26.07c-19.41,-3.04 -56.3,-12.06 -72.54,-12.06l0 -409.95c0,-9.91 22.68,-8.22 31.62,-9.59 13.27,-2.03 21.97,-4.25 34.68,-6.54 12.5,-2.25 24.85,-3.4 35.97,-5.24 13.3,-2.2 23.86,-5 36.65,-6.74 97.47,-13.21 191.4,-34.12 288.75,-47.45l72.79 -11.8c11.06,-1.93 21.6,-4.47 34.92,-6.3 11.68,-1.61 25.9,-3.48 37.25,-6.13 3.31,-6.9 6.81,-20.7 9.45,-29.59 3.3,-11.09 5.03,-19.75 8.39,-30.65l61.06 -175.37c3.77,-10.82 7.12,-17.07 11.57,-27.48l65.69 -129.53c34.87,-67.51 41.31,-35.21 -11.7,-111.91l-146.3 -209.43c-3.81,-5.14 -5.95,-8.41 -9.94,-13.92l-94.52 -135.4c-13.48,-19.1 -30.21,-39.84 -41.2,-60.75l0 0zm1021.64 1240.7c-2.72,-14.04 7.67,-95.07 11.36,-112.27 15.87,-74.08 46.96,-141.04 93.07,-199.75 20.09,-25.58 28,-34.01 51.16,-57.29 25.88,-26.01 75.33,-61.02 106.82,-77.55l87.27 -36.37c8.72,-2.7 18.24,-4.49 26.02,-6.51 17.84,-4.63 30.64,-7.38 51.4,-9.34 7.49,-0.71 18.39,-1.98 27.13,-3.24 51.07,-7.34 115.85,1.96 165.65,14.75 22.47,5.77 60.6,17.3 80.26,28.19 30.59,16.95 26.15,11.04 69.76,38.69l35.18 25.55c5.99,4.74 9.45,9.88 15.46,14.91 28.11,23.51 26.62,26.31 46.5,46.77l27.89 35.01c5.48,7.94 7.28,8.54 12.69,17.67 18.42,31.08 40.14,68.24 51.39,102.61l27.6 126.41c5.89,55.48 -1.63,112.89 -15.34,166.24l-14.45 46.28c-2.81,8.48 -5.58,16.02 -8.97,23.57 -26.25,58.47 -36.67,68.9 -69.36,115.01l-61.33 62.31c-18.83,18.34 -48.31,37.92 -71.7,51.94 -22.65,13.58 -60.11,32.28 -83.62,40.02 -59.83,19.69 -66.14,18.09 -127.01,26.99 -37.98,5.56 -103.46,-0.75 -142.01,-8 -47.46,-8.93 -91.41,-28.72 -133.99,-50.38 -7.76,-3.95 -11.94,-6.62 -19.31,-11.05 -30.71,-18.48 -27.44,-18.06 -54.87,-38.4 -7.5,-5.56 -9.41,-8.61 -16.12,-14.25 -7.45,-6.26 -10.3,-8.29 -17.26,-15.28 -5.58,-5.61 -9.59,-9.56 -15.21,-15.15 -6.37,-6.34 -8.07,-10.21 -14.03,-16.34 -37.18,-38.27 -72.99,-104.63 -91.41,-155.87l-14.69 -48.21c-14.04,-47.85 -10.69,-80.49 -15.95,-107.68l0 -0zm459.84 761.34l67.33 0.09c11.2,-0.14 11.97,-1.78 21.6,-2.26 85.85,-4.28 168.7,-25.92 247.56,-58.27 49.03,-20.11 96.91,-46.81 138.55,-76.19 9.19,-6.49 18.79,-12.67 27.69,-20.03l133.23 -129.23c4,-5.96 6.38,-8.28 10.42,-13.44 21.43,-27.35 39.71,-55.97 57.62,-85.54 21.86,-36.09 38.32,-74.41 53.29,-113.73l18.48 -53.1c3.83,-13.39 7.13,-23.4 10.29,-37.43 8.71,-38.62 14.92,-82.04 20.25,-122.91 3.27,-25.12 0.43,-126.52 -4.42,-154.93 -5.55,-32.53 -8.73,-69.45 -18.59,-100.71 -7.66,-24.29 -13.28,-48.9 -22.86,-72.57l-28.55 -66.89c-18.99,-42.48 -44.51,-81.77 -71.58,-119.29l-65.48 -77.68c-4.86,-5.25 -5.65,-7.74 -10.77,-13.09l-37.14 -34.44c-17.56,-14.01 -34.05,-29.91 -52.8,-42.64 -94.35,-64.06 -143.17,-90.74 -256.91,-124.85 -25.3,-7.59 -52.67,-12.73 -79.01,-16.57 -58.8,-8.58 -94.77,-8.66 -156.04,-8.66 -34.13,0 -92.81,7.19 -125.07,15.93 -24.95,6.75 -49.91,10.2 -74.76,18.5 -88.81,29.65 -174.05,71.3 -246.5,130.92 -35.71,29.38 -66.04,57.2 -97.59,91.11l-43 52.44c-4.34,5.8 -5.57,8.19 -10.11,13.75l-36.78 56.49c-3.33,5.52 -5.29,10.24 -8.34,15.52 -10.6,18.34 -24.06,43.3 -32.16,63.28 -24.17,59.63 -45.87,117.19 -55.13,181.29 -5.75,39.78 -9.61,68.06 -10.13,109.17 -0.14,11.2 -2.28,12.69 -2.28,21.6l2.18 43.39c-0.09,16.65 2.01,30.17 3.97,43.75 17.57,121.84 37.85,182.97 90.01,287.41 11.37,22.76 26.62,44.87 40.83,65.46l36.14 48.45c14.89,22.35 70.72,78.89 92.78,95.94l26.04 21.68c22.56,16.84 43.78,34.56 68.04,49.09 81.18,48.61 73.53,39.73 141.82,70.74 22.86,10.38 48.17,15.32 72.2,23.24 44.51,14.66 119.17,25.21 165.66,25.21l0 0.01zm-518.41 -2353.44c-21.53,1.79 -46.74,16.74 -67.51,23.59 -9.6,3.17 -13.49,5.3 -21.45,8.91l-84.56 36.91c-5.4,0 -87.06,-60.62 -99.44,-69.75l-130.5 -92.92c-41.92,-29.57 -130.76,-97.86 -173.5,-119.32 -69.06,-34.68 -161.57,-28.81 -226.06,14.73l-28.5 23.56c-64.76,60 -125.97,124.24 -188.49,186.76 -40.19,40.19 -183.58,175.92 -208.02,219.29 -21.08,37.41 -30.04,74.64 -30.04,119.63 0,83.63 50.21,142.18 94.19,202.97 34.95,48.31 66.86,99.16 102.58,146.86l102.56 146.88c0,9.37 -46.79,106.34 -54.49,129.88l-14.5 39.73c-3.04,8.98 -1.43,8.02 -9.11,10.41 -19.05,5.93 -75.79,13.43 -96.37,16.42 -65.02,9.45 -126.65,22.86 -191.45,31.96l-63.18 10.56c-20.99,2.84 -41.85,7.32 -62.95,10.8 -10.1,1.66 -20.57,2.9 -31.98,4.9 -36.35,6.36 -74.8,23.22 -101.21,48.46 -22.54,21.54 -34.75,32.31 -51.13,59.49 -18.34,30.45 -32.92,68.67 -32.92,116.75l0 501.05c0,22.12 3.23,44.76 9.25,62.33 1.28,3.72 2.61,8.78 3.49,11.69 12.49,41.53 53.3,93.64 90.11,115.96 22,13.34 36.13,18.82 59.2,27.56 9.12,3.46 13.51,4.44 24.19,6.17l449.3 79.95c0.73,8.72 4.83,13.36 7.89,22.48 3.24,9.66 5.33,14.54 8.66,23.88 3.02,8.48 5.26,13.57 8.56,21.81 3.44,8.59 5.5,15.31 9.22,23.31 13.55,29.13 24.85,58.84 39.42,86.38 -32.51,48.54 -70.04,94.11 -102.4,142.71 -8.37,12.57 -16.32,23.63 -25.27,35.46l-25.42 35.31c-8.97,12.47 -16.13,23.81 -25.08,35.65l-51.42 72.22c-8.94,12.12 -16.63,22.47 -25.5,35.23l-12.34 18.03c-4.7,6.62 -7.19,11.66 -11.49,18.87 -8.53,14.28 -13.73,29.21 -17.79,45.11l-8.57 52.23c-4.43,31.4 8.45,73.77 20.21,102.25 5.83,14.12 14.64,29.32 22.59,40.31 29.47,40.7 209.46,214.85 243.5,248.88 41.38,41.38 81.29,81.06 122.55,122.56l11.13 10.56c0.33,0.3 0.79,0.75 1.12,1.05l3.36 3.14c5.68,5.02 10.06,8.77 16.53,13.84 24.13,18.9 51.43,33.69 82.13,41.51 57.03,14.52 124.4,8.24 174.69,-23.02 3.71,-2.31 3.58,-2.75 7.58,-5.43l52.81 -36.13c10.43,-7.11 18.34,-13.72 29.31,-20.58l298.65 -208.91c6.85,3.62 13.33,5.53 20.98,9.39l130.22 54.15c7.82,3.1 16.52,6.18 24.5,8.04l51.14 300.24c2.84,18.75 4.45,32.86 8.28,50.29l12.8 76.13c1.2,7.46 2.41,17.59 3.94,26.43 13.43,77.72 72.92,148.35 148.05,172.97 8.58,2.81 14.75,5.29 22.98,7.38 14.18,3.6 36.56,6.44 54.3,6.44l496.71 0c103.16,0 185.54,-62.16 218.8,-154.28 13.95,-38.65 17.18,-84.42 25.78,-123.89l39.19 -223.27c1.74,-12.93 3.76,-18.52 5.97,-30.9 2.03,-11.38 3.25,-21.88 4.91,-31.97 1.98,-12.04 4.67,-21.2 6.57,-32.48 6.8,-40.21 -1.09,-40.97 23.8,-49.95l66.92 -26.35c5.12,-2.17 9.2,-3.03 14.33,-5.2 9.72,-4.12 17.13,-7.67 27.27,-11.78 16.66,-6.75 34.16,-19.35 52.34,-23.58l294.38 206.67c10.18,7.62 19.24,12.84 29.42,20.47 10.6,7.94 19.58,13.76 30.64,21.41 47.36,32.77 87.27,55.11 150.95,55.11 28.63,0 52.09,-5.84 75.95,-12.98 47.71,-14.29 83.61,-50.05 117.64,-84.08 48.14,-48.14 302.12,-297.72 326.67,-328.39 10.69,-13.36 22.81,-26.31 31.95,-41.79 9.5,-16.09 16.09,-32.19 21.68,-52.07 2.64,-9.4 5.81,-21.61 6.89,-29.99 4.89,-37.83 1.13,-86.59 -13.91,-117.34 -30.5,-62.31 -41.15,-65.51 -80.56,-123.33 -14.06,-20.62 -28.2,-38.71 -42.51,-59.44l-170.49 -237.3 33.8 -76.82c4.04,-9.65 7.09,-16.69 10.85,-26.02l19.75 -53.99c9.37,-24.58 14.52,-17.54 52.11,-23.81l189.95 -33.47c12.54,-2.04 18.17,-3.92 30.95,-5.92 12.38,-1.94 23.06,-3.18 33.72,-5.32 61.4,-12.34 127.35,-17.98 186.82,-36.59 52.69,-16.49 95.79,-54.61 124.08,-101.5 21.85,-36.22 31.59,-73.52 31.59,-118.08l0 -494.54c0,-18.14 -1.87,-37.48 -5.59,-52.97 -7.08,-29.46 -20.14,-55.88 -36.47,-80.66 -7.97,-12.08 -17.94,-22.85 -27.89,-32.85 -38.61,-38.83 -88.06,-57.42 -141.09,-64.97 -11.47,-1.63 -16.53,-3.09 -25.65,-4.72l-101.33 -15.8c-16.32,-2.28 -32.64,-5.75 -49.93,-8.64l-203.28 -33.15c-16.48,-2.42 -36.84,-7.74 -53,-7.74l-15.92 -44.82c-3.79,-8.32 -5.03,-13.73 -8.23,-22.14 -2.55,-6.7 -5.85,-13.36 -9.01,-21.36l-38.43 -85.21c1.59,-1.83 3.06,-3.49 4.96,-5.88l162.94 -231.83c14.15,-20.42 26.23,-39.18 40.94,-58.84 25.19,-33.69 65.66,-88.82 80.3,-123.59 33.47,-79.48 15.93,-181.23 -44.29,-243.35 -0.31,-0.32 -0.77,-0.77 -1.08,-1.09l-6.38 -6.63c-13.26,-15.72 -30.14,-29.28 -44.29,-44.64 -3.98,-4.32 -5.16,-4.95 -8.78,-8.57 -3.86,-3.86 -4.97,-5.26 -9.73,-9.79l-97.61 -97.61c-4.47,-4.25 -5.07,-5.59 -9.69,-9.84 -4.44,-4.09 -4.19,-4.75 -8.5,-8.85 -3.03,-2.89 -1.64,-1.09 -4.61,-4.06l-84.49 -84.7c-31.44,-28.96 -59.62,-60.05 -90.6,-89.44l-30.03 -24.2c-67.8,-44.28 -147.86,-47.3 -221.55,-15.84 -22.48,9.6 -42.47,25.07 -61.01,38.77 -9.7,7.17 -17.67,12.64 -27.58,20.14 -5.76,4.35 -9.2,5.85 -14.27,9.59l-100.77 72.76c-10.45,7.21 -19.57,13.64 -29.07,20.82 -24.66,18.64 -169.11,123.64 -175.7,123.64l-127.68 -54.53c-13.09,-4.74 -31.64,-13.7 -45.85,-14.88 -3.71,-15.9 -5.21,-34.12 -8.44,-50.13l-8.91 -49.66c-2.91,-17.32 -6.03,-31.78 -9,-49.56 -1.35,-8.05 -2.37,-17.76 -4.15,-26.21l-40.16 -226.64c-9.85,-64.52 -21.78,-120.97 -68.7,-167.73 -20.3,-20.23 -41.16,-36.65 -67.39,-49.74 -24.68,-12.31 -60.8,-22.38 -96.92,-22.38l-503.22 0c-19.14,0 -36.92,2.87 -52.31,6.25 -9.19,2.02 -12.45,4.36 -21.44,6.75 -40.77,10.85 -94.14,56.59 -115.39,90.67l-20.56 38c-13.41,28.22 -28.79,135.35 -34.18,169.71 -1.56,9.95 -2.38,16.88 -3.74,26.63l-33.11 201.15c-2.4,16.52 -16.1,86.56 -16.42,100.71l0.01 -0.01z"/>
 </g>
</svg>
