<?xml version="1.0" encoding="UTF-8"?>
<!DOCTYPE svg PUBLIC "-//W3C//DTD SVG 1.1//EN" "http://www.w3.org/Graphics/SVG/1.1/DTD/svg11.dtd">
<!-- Creator: CorelDRAW 2021 (64 Bit) -->
<svg xmlns="http://www.w3.org/2000/svg" xml:space="preserve" width="164.132mm" height="164.132mm" version="1.1" style="shape-rendering:geometricPrecision; text-rendering:geometricPrecision; image-rendering:optimizeQuality; fill-rule:evenodd; clip-rule:evenodd"
viewBox="0 0 16412.18 16412.18"
 xmlns:xlink="http://www.w3.org/1999/xlink"
 xmlns:xodm="http://www.corel.com/coreldraw/odm/2003">
 <defs>
  <style type="text/css">
   <![CDATA[
    .fil0 {fill:#5972A4}
   ]]>
  </style>
 </defs>
 <g id="Camada_x0020_1">
  <metadata id="CorelCorpID_0Corel-Layer"/>
  <path class="fil0" d="M2604.47 3662.29l64.97 -63.26c15.95,-15.15 15,-17.56 31.42,-32.69l104.18 -104.18c15.13,-16.42 17.54,-15.48 32.69,-31.42l236.52 -236.29c11.87,-11.87 6.88,-8.52 15,-17.06 14.84,-15.61 3.49,-3.27 16.65,-15.4l440.76 -440.75c48.96,-45.09 84.5,-95.86 139.67,-132.8 79.9,42.29 357.78,252.46 436.13,309.14 75.81,54.83 145.81,102.21 219.78,156.87 142.37,105.2 293.88,203.48 435.09,310.2l327.44 233.52c38.56,25.37 74.83,53.69 112.24,80.08 36.69,25.88 69.21,49.09 107.52,76.8 147.68,106.81 88.8,91.01 310.51,-27.29 268.11,-143.06 531.88,-274.56 819.13,-374.92 188.1,-65.73 381.88,-121.3 575.06,-178.23 68.35,-20.14 52.72,-5.77 63.45,-88.82 32.83,-254.21 89.05,-517.52 125.3,-772.24 13.02,-91.47 29.68,-171.05 42,-262.52 17.88,-132.81 47.48,-251.76 65.14,-383.64l84.23 -516.8c5.41,-35.37 -1.26,-116.83 35.43,-116.83l1514.6 0c0,49.42 187.04,1078.72 205.97,1196.45 8.32,51.8 19.46,84.68 26.06,134.21 24.73,185.55 61.86,352.13 91.95,533.12 14.47,86.98 42.7,180.11 44.66,267.88 75.04,17.48 145.56,48.24 220.98,67.52 202.37,51.71 400.14,125.24 591.75,201.62l636.22 309.41c44.68,27.14 147.79,91.89 193.88,102.62 148.69,-99.57 291.67,-213.7 439.16,-314.12l218.02 -158.64c74.25,-52.15 144.22,-102.32 219.72,-156.93l657.11 -472.82c38.8,-27.9 69.02,-51.07 107.22,-77.1 38.17,-26 74.36,-57.69 113.78,-78.55l1083.86 1079.86 -157.48 223.17c-26.32,38.12 -53.58,72.15 -76.44,107.88l-856.36 1219.2c-211.4,319.41 -190.77,143.29 1.18,524.54 19.34,38.41 35.83,63.48 53.39,98.88l164.8 356.1c11.01,25.68 14.54,29.14 25.3,54.84l224.25 673.29c23.95,73.41 36.33,72.25 172.94,131.58 91.19,39.62 108.22,60.24 220.71,75.81 297.65,41.21 605.65,103.64 901.11,148.7 49.19,7.5 86.13,11.51 132.89,19.37 86.24,14.5 167.34,27.94 262.19,42.33 49.21,7.46 73.36,15.47 122.14,22.1 40.13,5.45 87.95,11 133.14,19.13 46.95,8.46 79.07,16.64 128.11,24.15 35.37,5.41 116.83,-1.26 116.83,35.43l0 1514.6c-66.66,0 -1372.64,242.73 -1533.94,269.15l-513.09 87.95c-25.07,3.99 -43.19,6.42 -62.48,9.64 -68.58,11.46 -48.3,67.21 -76.08,148.32l-69.58 234.94c-33.94,115.2 -79.37,221.72 -115.94,332.82 -42.87,130.23 -117.26,296.56 -179.94,421.1l-104.1 200.42c-168.82,338.86 -201.46,250.56 -84.32,410.04 28.24,38.44 51.8,73.91 80.1,112.22 27.17,36.76 48.6,70.56 76.6,107.72l239.34 329.63c54.61,75.5 101.76,146.96 156.79,219.86 43.37,57.48 586.99,797.68 631.96,882.64l-1079.86 1083.86c-67.49,-59.51 -149.92,-104.44 -223.01,-157.64 -37.72,-27.47 -71.76,-51.41 -107.61,-76.71 -147.46,-104.02 -298.79,-202.35 -442.96,-310.34l-776.67 -545.59c-77.51,-51.45 -146.66,-102.87 -222.79,-153.85 -49.33,11.49 -139.7,70.15 -188.95,99.54 -187.76,112.09 -535.47,276.71 -733.74,348.13l-156.82 59.55c-37.81,15.05 -71.72,20.49 -108.93,35.31l-220.39 68.12c-62.9,16.97 -167.34,42.39 -225.99,70.53l-48.13 264.4c-14.94,90.51 -32.19,177.95 -46.93,265.62l-188.82 1061.32c-8.81,47.09 -14.18,84.64 -21.78,130.48 -12.13,73.25 -71,357.44 -71,409.83l-1514.6 0c-32.32,0 -26.47,-54.7 -32.06,-88.14l-226.56 -1352.16c-12.81,-66.89 -19.84,-142.06 -34.57,-213.86 -29.73,-144.87 -45.81,-276.63 -68.2,-420.64 -11.27,-72.56 -35.33,-64.22 -148.34,-92.07 -145.64,-35.89 -325.78,-92.45 -463.33,-145.72 -34.53,-13.37 -61.35,-19.75 -95.13,-33.09 -60.98,-24.06 -113.81,-43.44 -172.92,-67.49l-252.93 -115.69c-122.82,-50.79 -282.89,-144.43 -399.76,-209.29 -85.22,-47.31 -99.53,-85.74 -156.61,-41.74 -160.49,123.75 -336.63,229.5 -500.31,349.38l-1223.76 859.81c-84.93,-56.88 -172.89,-168.7 -252.49,-244.36l-88.29 -88.01c-122.29,-131.2 -699.13,-686.86 -741.07,-749.48l461.58 -652.33c254.57,-368.8 531.34,-722.5 780.55,-1094.67 -9.48,-35.51 -188,-349.38 -202.11,-374.88 -32.31,-58.38 -70.25,-129.78 -96.71,-191.79 -30.4,-71.23 -65.23,-132.13 -90.82,-205.69 -13.96,-40.12 -28.14,-63.39 -42.09,-102.15 -8.19,-22.74 -12.75,-28.18 -21.74,-50.39 -8.04,-19.86 -12.84,-37.36 -18.27,-53.86l-174.27 -546.96c-50.25,-149.25 0.13,-113.82 -163.46,-141.07l-924.95 -164.92c-50.26,-8.23 -77.69,-15.71 -128.19,-24.08 -49.25,-8.16 -90.44,-12.07 -137.45,-22.82l-528.75 -96.32c-71.73,-11.25 -207.99,-44.55 -267.99,-44.55l0 -1514.6c0,-36.63 83.77,-30.37 116.83,-35.43 49.04,-7.51 81.16,-15.69 128.11,-24.15 46.18,-8.31 91.8,-12.56 132.91,-19.35 49.15,-8.12 88.14,-18.48 135.39,-24.89 360.1,-48.82 707.15,-126.06 1066.81,-175.32l268.94 -43.59c40.87,-7.13 79.81,-16.5 129,-23.27 43.14,-5.95 95.68,-12.87 137.63,-22.64 12.23,-25.49 25.15,-76.48 34.93,-109.32 12.21,-40.96 18.6,-72.97 31,-113.24l225.6 -647.91c13.92,-39.99 26.3,-63.07 42.74,-101.51l242.68 -478.55c128.81,-249.43 152.63,-130.1 -43.24,-413.45l-540.5 -773.76c-14.09,-18.98 -21.97,-31.08 -36.73,-51.43l-349.21 -500.25c-49.79,-70.57 -111.62,-147.2 -152.21,-224.44zm3774.49 4583.86c-10.05,-51.89 28.35,-351.23 41.98,-414.8 58.64,-273.7 173.51,-521.1 343.87,-737.99 74.24,-94.52 103.44,-125.65 189.02,-211.67 95.6,-96.08 278.3,-225.46 394.66,-286.51l322.41 -134.37c32.21,-9.97 67.41,-16.6 96.14,-24.06 65.9,-17.12 113.18,-27.27 189.89,-34.5 27.69,-2.61 67.93,-7.32 100.23,-11.96 188.68,-27.13 428.01,7.23 612.02,54.48 83,21.31 223.89,63.93 296.52,104.16 113.01,62.63 96.62,40.79 257.74,142.95l129.96 94.41c22.13,17.5 34.9,36.51 57.11,55.09 103.86,86.84 98.34,97.2 171.8,172.8l103.04 129.36c20.26,29.33 26.91,31.55 46.9,65.29 68.04,114.84 148.31,252.11 189.86,379.12l101.95 467.03c21.77,204.98 -6.04,417.07 -56.66,614.2l-53.4 170.99c-10.39,31.32 -20.62,59.2 -33.14,87.07 -96.97,216.03 -135.47,254.56 -256.24,424.92l-226.59 230.2c-69.58,67.76 -178.47,140.08 -264.88,191.9 -83.66,50.17 -222.07,119.27 -308.93,147.86 -221.05,72.74 -244.37,66.84 -469.24,99.73 -140.33,20.54 -382.23,-2.78 -524.68,-29.57 -175.34,-32.98 -337.73,-106.12 -495.03,-186.14 -28.69,-14.59 -44.12,-24.46 -71.36,-40.84 -113.45,-68.29 -101.36,-66.73 -202.73,-141.87 -27.72,-20.55 -34.78,-31.81 -59.55,-52.64 -27.51,-23.13 -38.07,-30.63 -63.76,-56.46 -20.61,-20.73 -35.43,-35.32 -56.21,-55.99 -23.53,-23.41 -29.83,-37.73 -51.83,-60.37 -137.36,-141.39 -269.65,-386.56 -337.71,-575.85l-54.28 -178.13c-51.86,-176.77 -39.49,-297.38 -58.93,-397.85zm1698.91 2812.83l248.74 0.32c41.4,-0.51 44.23,-6.57 79.8,-8.35 317.16,-15.82 623.26,-95.77 914.64,-215.3 181.15,-74.3 358.05,-172.96 511.89,-281.48 33.97,-23.97 69.41,-46.8 102.31,-73.99l492.21 -477.45c14.77,-22.03 23.56,-30.58 38.51,-49.66 79.18,-101.06 146.72,-206.79 212.87,-316.03 80.74,-133.34 141.56,-274.92 196.89,-420.17l68.29 -196.17c14.15,-49.46 26.33,-86.46 38.03,-138.28 32.19,-142.67 55.13,-303.11 74.82,-454.1 12.1,-92.83 1.59,-467.43 -16.32,-572.42 -20.51,-120.18 -32.24,-256.6 -68.67,-372.1 -28.31,-89.75 -49.08,-180.67 -84.47,-268.12l-105.47 -247.14c-70.18,-156.96 -164.46,-302.09 -264.47,-440.73l-241.9 -287c-17.94,-19.39 -20.88,-28.58 -39.81,-48.36l-137.21 -127.24c-64.87,-51.75 -125.78,-110.51 -195.06,-157.54 -348.58,-236.69 -528.97,-335.26 -949.17,-461.25 -93.48,-28.03 -194.61,-47.02 -291.91,-61.23 -217.25,-31.71 -350.13,-32.01 -576.5,-32.01 -126.1,0 -342.89,26.58 -462.06,58.84 -92.16,24.95 -184.39,37.7 -276.22,68.37 -328.13,109.55 -643.04,263.43 -910.7,483.7 -131.92,108.56 -243.97,211.32 -360.57,336.63l-158.85 193.76c-16.02,21.44 -20.59,30.26 -37.35,50.8l-135.88 208.72c-12.31,20.4 -19.54,37.84 -30.81,57.34 -39.18,67.77 -88.89,159.97 -118.82,233.79 -89.29,220.31 -169.48,432.95 -203.7,669.8 -21.24,146.97 -35.51,251.44 -37.42,403.33 -0.52,41.37 -8.41,46.88 -8.41,79.82l8.04 160.32c-0.33,61.53 7.43,111.46 14.67,161.64 64.9,450.14 139.82,676.01 332.55,1061.84 42.01,84.1 98.36,165.78 150.84,241.83l133.52 179.01c55.02,82.57 261.26,291.48 342.77,354.44l96.2 80.09c83.34,62.22 161.76,127.68 251.39,181.36 299.93,179.6 271.65,146.77 523.98,261.36 84.44,38.36 177.97,56.62 266.75,85.85 164.46,54.17 440.27,93.15 612.05,93.15zm-1915.29 -8694.93c-79.55,6.62 -172.68,61.86 -249.42,87.15 -35.47,11.7 -49.86,19.59 -79.26,32.93l-312.41 136.36c-19.97,0 -321.64,-223.95 -367.39,-257.69l-482.13 -343.29c-154.89,-109.25 -483.1,-361.55 -641.01,-440.84 -255.16,-128.14 -596.94,-106.44 -835.19,54.42l-105.28 87.04c-239.28,221.69 -465.39,459 -696.38,690 -148.49,148.49 -678.24,649.96 -768.53,810.19 -77.89,138.23 -110.98,275.76 -110.98,441.97 0,308.97 185.5,525.3 347.99,749.89 129.14,178.5 247.01,366.37 379.01,542.57l378.91 542.67c0,34.63 -172.88,392.88 -201.33,479.85l-53.56 146.79c-11.23,33.17 -5.28,29.65 -33.65,38.48 -70.37,21.9 -279.99,49.62 -356.04,60.68 -240.23,34.92 -467.9,84.45 -707.33,118.08l-233.44 39.02c-77.54,10.48 -154.62,27.04 -232.56,39.91 -37.31,6.15 -76.01,10.72 -118.14,18.09 -134.3,23.5 -276.35,85.8 -373.92,179.03 -83.28,79.58 -128.39,119.38 -188.91,219.81 -67.78,112.48 -121.62,253.69 -121.62,431.32l0 1851.18c0,81.73 11.94,165.37 34.17,230.29 4.72,13.75 9.65,32.45 12.89,43.21 46.16,153.45 196.94,345.95 332.9,428.41 81.28,49.3 133.49,69.54 218.72,101.83 33.68,12.77 49.92,16.39 89.38,22.81l1659.97 295.38c2.68,32.21 17.85,49.36 29.14,83.05 11.96,35.71 19.7,53.71 31.98,88.22 11.14,31.33 19.42,50.15 31.63,80.57 12.72,31.72 20.33,56.57 34.08,86.12 50.08,107.63 91.81,217.4 145.65,319.15 -120.09,179.33 -258.75,347.7 -378.33,527.24 -30.93,46.44 -60.3,87.29 -93.36,131.02l-93.9 130.47c-33.13,46.07 -59.59,87.97 -92.66,131.72l-189.96 266.83c-33.03,44.78 -61.46,83 -94.2,130.17l-45.61 66.6c-17.38,24.47 -26.57,43.09 -42.47,69.73 -31.5,52.75 -50.72,107.92 -65.73,166.67l-31.65 192.96c-16.37,116.02 31.21,272.55 74.66,377.76 21.54,52.16 54.08,108.32 83.47,148.92 108.88,150.38 773.87,793.77 899.61,919.51 152.87,152.87 300.34,299.47 452.75,452.81l41.13 39.01c1.21,1.12 2.92,2.77 4.13,3.89l12.43 11.61c20.99,18.55 37.17,32.42 61.06,51.14 89.15,69.84 190.02,124.48 303.42,153.36 210.71,53.66 459.62,30.45 645.39,-85.04 13.72,-8.53 13.24,-10.16 28.02,-20.07l195.1 -133.47c38.55,-26.28 67.76,-50.68 108.28,-76.03l1103.38 -771.84c25.3,13.39 49.27,20.45 77.5,34.69l481.11 200.06c28.89,11.44 61.02,22.84 90.5,29.71l188.96 1109.27c10.5,69.28 16.44,121.41 30.58,185.79l47.31 281.25c4.44,27.56 8.91,64.98 14.55,97.64 49.62,287.14 269.41,548.08 546.99,639.05 31.69,10.38 54.51,19.56 84.91,27.28 52.38,13.31 135.07,23.78 200.61,23.78l1835.15 0c381.13,0 685.51,-229.65 808.38,-569.98 51.56,-142.79 63.46,-311.91 95.24,-457.71l144.8 -824.87c6.44,-47.76 13.89,-68.43 22.06,-114.17 7.51,-42.04 12.01,-80.82 18.13,-118.1 7.3,-44.5 17.24,-78.33 24.27,-119.98 25.12,-148.57 -4.02,-151.37 87.94,-184.53l247.24 -97.33c18.93,-8.03 34,-11.19 52.93,-19.21 35.93,-15.22 63.31,-28.35 100.73,-43.52 61.57,-24.95 126.21,-71.48 193.36,-87.12l1087.61 763.57c37.62,28.17 71.08,47.45 108.69,75.63 39.15,29.32 72.33,50.83 113.2,79.11 174.97,121.07 322.42,203.62 557.69,203.62 105.77,0 192.44,-21.57 280.6,-47.97 176.28,-52.79 308.89,-184.91 434.63,-310.65 177.86,-177.86 1116.2,-1099.96 1206.88,-1213.27 39.5,-49.35 84.28,-97.19 118.05,-154.41 35.09,-59.46 59.44,-118.91 80.11,-192.36 9.77,-34.73 21.45,-79.83 25.45,-110.78 18.07,-139.76 4.19,-319.92 -51.41,-433.51 -112.68,-230.2 -152.02,-242.04 -297.65,-455.64 -51.94,-76.19 -104.2,-143 -157.07,-219.59l-629.87 -876.71 124.89 -283.81c14.93,-35.65 26.2,-61.66 40.1,-96.14l72.99 -199.48c34.61,-90.79 53.66,-64.81 192.51,-87.97l701.77 -123.64c46.35,-7.54 67.13,-14.47 114.35,-21.88 45.74,-7.18 85.19,-11.76 124.58,-19.67 226.85,-45.61 470.52,-66.44 690.22,-135.2 194.67,-60.94 353.91,-201.78 458.42,-375.01 80.72,-133.8 116.7,-271.63 116.7,-436.25l0 -1827.14c0,-67.01 -6.9,-138.48 -20.66,-195.72 -26.16,-108.83 -74.42,-206.47 -134.74,-297.99 -29.43,-44.65 -66.3,-84.42 -103.02,-121.36 -142.63,-143.46 -325.33,-212.16 -521.26,-240.05 -42.39,-6.03 -61.07,-11.43 -94.76,-17.43l-374.38 -58.37c-60.31,-8.44 -120.57,-21.23 -184.46,-31.91l-751.01 -122.49c-60.89,-8.95 -136.09,-28.59 -195.8,-28.59l-58.81 -165.58c-13.99,-30.75 -18.59,-50.73 -30.4,-81.79 -9.42,-24.75 -21.6,-49.37 -33.28,-78.91l-141.97 -314.81c5.88,-6.77 11.3,-12.9 18.34,-21.73l601.99 -856.51c52.28,-75.46 96.91,-144.75 151.25,-217.39 93.08,-124.45 242.59,-328.15 296.68,-456.61 123.65,-293.64 58.84,-669.57 -163.62,-899.06 -1.14,-1.18 -2.84,-2.85 -4,-4.02l-23.56 -24.51c-48.99,-58.1 -111.35,-108.17 -163.64,-164.94 -14.71,-15.97 -19.06,-18.29 -32.44,-31.67 -14.26,-14.26 -18.36,-19.44 -35.96,-36.17l-360.62 -360.62c-16.52,-15.7 -18.74,-20.64 -35.79,-36.35 -16.42,-15.12 -15.47,-17.54 -31.42,-32.69 -11.21,-10.66 -6.05,-4.01 -17.05,-15.01l-312.15 -312.92c-116.17,-107 -220.28,-221.86 -334.71,-330.44l-110.93 -89.4c-250.5,-163.59 -546.3,-174.77 -818.52,-58.52 -83.06,35.48 -156.91,92.6 -225.41,143.22 -35.85,26.49 -65.27,46.72 -101.89,74.41 -21.29,16.09 -34.01,21.63 -52.72,35.44l-372.3 268.81c-38.62,26.65 -72.31,50.39 -107.39,76.92 -91.11,68.86 -624.79,456.78 -649.12,456.78l-471.71 -201.45c-48.36,-17.53 -116.91,-50.63 -169.39,-54.99 -13.69,-58.75 -19.25,-126.05 -31.18,-185.21l-32.91 -183.46c-10.74,-63.99 -22.29,-117.4 -33.26,-183.11 -4.97,-29.74 -8.75,-65.63 -15.35,-96.84l-148.38 -837.32c-36.38,-238.37 -80.47,-446.92 -253.81,-619.69 -74.99,-74.75 -152.08,-135.41 -248.97,-183.76 -91.16,-45.5 -224.63,-82.69 -358.07,-82.69l-1859.2 0c-70.73,0 -136.39,10.62 -193.26,23.11 -33.97,7.45 -46,16.11 -79.22,24.95 -150.63,40.09 -347.79,209.09 -426.33,334.98l-75.97 140.41c-49.56,104.25 -106.35,500.06 -126.29,627 -5.78,36.77 -8.78,62.35 -13.82,98.37l-122.34 743.14c-8.88,61.03 -59.49,319.79 -60.65,372.1z"/>
 </g>
</svg>
